<svg width="1711" height="624" viewBox="0 0 1711 624" fill="none" xmlns="http://www.w3.org/2000/svg">
<path d="M949.013 76.9701L849.835 391.51L751.104 76.9701H635.952L795.444 541.491H901.191L1062.08 76.9701H949.013Z" fill="black"/>
<path d="M1516.72 76.9701H1414.7V541.491H1516.72V76.9701Z" fill="black"/>
<path d="M1710.84 251.98V159.524H1638.44V76.9701H1536.67V448.885C1536.24 464.286 1538.27 479.657 1542.69 494.417C1546.66 507.245 1554.35 518.606 1564.79 527.06C1575.33 535.045 1587.69 540.278 1600.77 542.287C1615.13 544.701 1629.69 545.834 1644.26 545.671H1710.84V453.214H1662.32C1655.49 453.298 1648.67 452.999 1641.87 452.319L1638.98 451.871C1638.59 449.119 1638.41 446.341 1638.44 443.561V251.98H1710.84Z" fill="black"/>
<path d="M1347.27 204.508C1329.8 185.73 1308.55 170.873 1284.92 160.917C1258.08 149.985 1229.3 144.618 1200.32 145.143C1171.48 144.667 1142.84 150.016 1116.12 160.868C1092.41 170.584 1071.09 185.341 1053.65 204.116C1036.2 222.89 1023.05 245.233 1015.1 269.596C1006.72 294.766 1002.53 321.143 1002.71 347.671C1002.52 374.103 1006.7 400.385 1015.1 425.448C1023.17 449.44 1036.17 471.476 1053.27 490.137C1070.85 509.026 1092.35 523.837 1116.27 533.529C1142.99 544.108 1171.53 549.316 1200.27 548.856C1229.21 549.399 1257.97 544.172 1284.87 533.479C1308.59 523.718 1329.91 508.931 1347.37 490.137C1364.47 471.466 1377.49 449.434 1385.59 425.448C1393.98 400.383 1398.17 374.103 1397.98 347.671C1398.15 321.143 1393.96 294.768 1385.59 269.596C1377.52 245.455 1364.46 223.279 1347.27 204.508ZM1284.77 396.387C1280.5 408.798 1273.73 420.198 1264.86 429.877C1256.72 438.505 1246.83 445.291 1235.85 449.781C1224.55 454.548 1212.39 456.952 1200.12 456.847C1187.9 456.931 1175.79 454.58 1164.49 449.93C1153.53 445.44 1143.65 438.653 1135.53 430.026C1126.65 420.36 1119.87 408.957 1115.62 396.537C1110.36 380.846 1107.81 364.369 1108.11 347.82C1107.81 331.256 1110.36 314.763 1115.62 299.054C1119.9 286.516 1126.67 274.972 1135.53 265.117C1143.52 256.314 1153.36 249.381 1164.34 244.815C1187.25 235.395 1212.95 235.395 1235.85 244.815C1246.83 249.379 1256.69 256.292 1264.71 265.068C1273.53 274.969 1280.3 286.521 1284.62 299.054C1289.89 314.763 1292.43 331.256 1292.13 347.82C1292.46 364.31 1289.97 380.735 1284.77 396.387Z" fill="black"/>
<path d="M204.3 311.962L309.259 207.003L411.303 309.047H615.39L306.344 0L204.3 102.044V311.962Z" fill="#EFE810"/>
<path d="M411.091 312.031L306.131 416.99L204.088 314.946L0 314.946L309.047 623.993L411.091 521.949V312.031Z" fill="black"/>
<path d="M518.633 416.718C501.263 434.087 473.102 434.087 455.732 416.718C438.362 399.348 438.362 371.186 455.732 353.817C473.102 336.447 501.263 336.447 518.633 353.817C536.002 371.186 536.002 399.348 518.633 416.718Z" fill="black"/>
<path d="M162.195 269.949C144.825 287.319 116.664 287.319 99.2941 269.949C81.9245 252.58 81.9245 224.418 99.2941 207.048C116.664 189.679 144.825 189.679 162.195 207.048C179.564 224.418 179.564 252.58 162.195 269.949Z" fill="#EFE810"/>
</svg>
